<?xml version="1.0" encoding="utf-8"?>
<!-- Generator: Adobe Illustrator 26.0.2, SVG Export Plug-In . SVG Version: 6.00 Build 0)  -->
<svg version="1.1" id="Facebook" xmlns="http://www.w3.org/2000/svg" xmlns:xlink="http://www.w3.org/1999/xlink" x="0px" y="0px"
	 viewBox="0 0 612 792" style="enable-background:new 0 0 612 792;" xml:space="preserve">

<style type="text/css">
	#Facebook:hover .cls-1{
		fill:white;
		transition: all 0.3s;
  		box-sizing: border-box;
  		max-width: 100%;
	}
	#Facebook:hover .cls-2{
		fill:blue;
		transition: all 0.3s;
  		box-sizing: border-box;
  		max-width: 100%;
	}
	.cls-1{fill:black}
	.cls-2{fill:black}
	</style>
	<script>
	let theFacebook = document.querySelector("#Facebook")

	function logMyID() {console.log(this.id);}

	theFacebook.addEventListener("mouseover",logMyID);
	</script>

<g>
	<path id="background" class="cls-1" d="M131.2,473.3V234.9c0-71.9,58.9-130.8,130.8-130.8h238.3c71.9,0,130.8,58.9,130.8,130.8v238.3
		c0,71.9-58.9,130.8-130.8,130.8h-80.2l-42.1-10.2L342,604.1h-80.2C190.1,604.1,131.2,545.2,131.2,473.3z"/>
	<g>
		<path class="cls-2" d="M478.4,434.7l11.1-72.4h-69.3v-46.9c0-19.9,9.7-39.1,40.7-39.1h31.4v-61.5c0,0-28.7-4.9-55.9-4.9
			c-57.1,0-94.3,34.7-94.3,97.3v55h-63.6v72.4H342v169.4h78.1V434.7H478.4z"/>
	</g>
</g>
</svg>
