<?xml version="1.0" encoding="utf-8"?>
<!-- Generator: Adobe Illustrator 26.0.2, SVG Export Plug-In . SVG Version: 6.00 Build 0)  -->
<svg version="1.1" id="Google" xmlns="http://www.w3.org/2000/svg" xmlns:xlink="http://www.w3.org/1999/xlink" x="0px" y="0px"
	 viewBox="0 0 612 792" style="enable-background:new 0 0 612 792;" xml:space="preserve">
<style type="text/css">
	<style type="text/css">
	#Google:hover .cls-1{
		fill:white;
		transition: all 0.3s;
  		box-sizing: border-box;
  		max-width: 100%;
	}
	#Google:hover .cls-2{
		fill:#DD4B39;
		transition: all 0.3s;
  		box-sizing: border-box;
  		max-width: 100%;
	}
	.cls-1{fill:black}
	.cls-2{fill:black}
	</style>
	<script>
	let theGoogle = document.querySelector("#Google")

	function logMyID() {console.log(this.id);}

	theGoogle.addEventListener("mouseover",logMyID);
	</script>
</style>
<g>
	<g>
		<path class="cls-1" d="M294.3,518.6L294.3,518.6c-138.1,0-250-111.9-250-250l0,0c0-138.1,111.9-250,250-250l0,0
			c138.1,0,250,111.9,250,250l0,0C544.3,406.7,432.4,518.6,294.3,518.6z"/>
	</g>
	<g>
		<g>
			<g>
				<path class="cls-2" d="M243.8,257.1V291h56c-2.2,14.5-16.9,42.7-56,42.7c-33.7,0-61.3-28-61.3-62.4s27.6-62.4,61.3-62.4
					c19.2,0,32,8.1,39.3,15.2l26.9-25.9c-17.2-16.1-39.5-25.9-66.2-25.9c-54.6,0-98.8,44.2-98.8,98.8s44.2,98.8,98.8,98.8
					c56.9,0,94.9-40,94.9-96.5c0-6.4-0.7-11.5-1.5-16.4h-93.3V257.1z"/>
				<path class="cls-2" d="M455.4,257.1h-28.3v-28.3h-28.3v28.3h-28.3v28.3h28.3v28.3h28.3v-28.3h28.3V257.1z"/>
			</g>
		</g>
	</g>
</g>
</svg>
