<?xml version="1.0" encoding="utf-8"?>
<!-- Generator: Adobe Illustrator 26.0.2, SVG Export Plug-In . SVG Version: 6.00 Build 0)  -->
<svg version="1.1" id="Instagram" xmlns="http://www.w3.org/2000/svg" xmlns:xlink="http://www.w3.org/1999/xlink" x="0px" y="0px"
	 viewBox="0 0 612 792" style="enable-background:new 0 0 612 792;" xml:space="preserve">
	<style type="text/css">
	#Instagram:hover .cls-1{
		fill:white;
		transition: all 0.3s;
  		box-sizing: border-box;
  		max-width: 100%;
	}
	#Instagram:hover .cls-2{
		fill:#8a3ab9;
		transition: all 0.3s;
  		box-sizing: border-box;
  		max-width: 100%;
	}
	.cls-1{fill:black}
	.cls-2{fill:black}
	</style>
<script>
	let theInstagram = document.querySelector("#Instagram")

	function logMyID() {console.log(this.id);}

	theInstagram.addEventListener("mouseover",logMyID);
</script>
<path class="cls-1" d="M49.4,461.7V223.3c0-71.9,58.9-130.8,130.8-130.8l238.4,0c71.9,0,130.8,58.9,130.8,130.8v238.4
	c0,71.9-58.9,130.8-130.8,130.8l-238.4,0C108.2,592.5,49.4,533.6,49.4,461.7z"/>
<g>
	<path class="cls-2" d="M377,248.3c-9.5,0-17.2,7.7-17.2,17.2c0,9.5,7.7,17.2,17.2,17.2c9.5,0,17.2-7.7,17.2-17.2
		C394.1,256,386.4,248.3,377,248.3z"/>
	<path class="cls-2" d="M300.6,270.3c-39.8,0-72.2,32.4-72.2,72.2c0,39.8,32.4,72.2,72.2,72.2c39.8,0,72.2-32.4,72.2-72.2
		C372.7,302.7,340.4,270.3,300.6,270.3z M300.6,388.7c-25.5,0-46.2-20.7-46.2-46.2c0-25.5,20.7-46.2,46.2-46.2
		c25.5,0,46.2,20.7,46.2,46.2C346.8,368,326.1,388.7,300.6,388.7z"/>
	<path class="cls-2" d="M357.9,489.1h-117c-48.5,0-88-39.5-88-88V284c0-48.6,39.5-88,88-88h117c48.5,0,88.1,39.5,88.1,88v117
		C445.9,449.6,406.4,489.1,357.9,489.1z M240.8,223.5c-33.3,0-60.5,27.1-60.5,60.5v117c0,33.3,27.1,60.5,60.5,60.5h117
		c33.3,0,60.5-27.1,60.5-60.5V284c0-33.3-27.1-60.5-60.5-60.5H240.8z"/>
</g>
</svg>
