<?xml version="1.0" encoding="utf-8"?>
<!-- Generator: Adobe Illustrator 26.0.2, SVG Export Plug-In . SVG Version: 6.00 Build 0)  -->
<svg version="1.1" id="Pinterest" xmlns="http://www.w3.org/2000/svg" xmlns:xlink="http://www.w3.org/1999/xlink" x="0px" y="0px"
	 viewBox="0 0 612 792" style="enable-background:new 0 0 612 792;" xml:space="preserve">
<style type="text/css">
	#Pinterest:hover .st0{
		fill:white	;
		transition: all 0.3s;
  		box-sizing: border-box;
  		max-width: 100%;
	}
	#Pinterest:hover .st1{
		fill:#E60023;
		transition: all 0.3s;
  		box-sizing: border-box;
  		max-width: 100%;
	}
	.st0{fill:black}
	.st1{fill:black}
	</style>
<script>
	let thePinterest = document.querySelector("#Pinterest")

	function logMyID() {console.log(this.id);}

	thePinterest.addEventListener("mouseover",logMyID);
</script>
<g>
	<path class="st0" d="M56,515.2V276.8c0-72,58.8-130.8,130.8-130.8h238.3c72,0,130.8,58.8,130.8,130.8v238.3
		c0,72-58.8,130.8-130.8,130.8H186.7C114.8,646,56,587.2,56,515.2z"/>
	<path class="st1" d="M286.7,450.4c-0.3,0.9-0.4,1.6-0.7,2.4c-11.2,43.7-12.4,53.4-23.9,73.6c-5.5,9.6-11.7,18.7-18.4,27.6
		c-0.7,1-1.5,2.2-3.1,1.9c-1.6-0.3-1.8-1.9-2.1-3.2c-1.8-13.3-2.8-26.5-2.4-40c0.6-17.4,2.8-23.5,25.2-118c0.3-1.5,0-2.7-0.6-4
		c-5.3-14.5-6.5-29.2-1.8-44.2c10.2-32.3,46.8-34.8,53.1-8.1c4,16.5-6.5,38.1-14.5,69.9c-6.6,26.3,24.3,45,50.7,25.8
		c24.3-17.7,33.8-60,32-90.1c-3.5-59.9-69.2-72.9-110.9-53.5c-47.8,22.1-58.7,81.3-37,108.4c2.8,3.4,4.9,5.6,4,9
		c-1.3,5.5-2.7,10.9-4.1,16.2c-1.2,4-4.4,5.5-8.6,3.8c-8-3.2-14.6-8.3-19.9-14.9c-18.3-22.7-23.6-67.6,0.6-105.6
		c26.8-42,76.7-59.1,122.3-54c54.4,6.2,88.8,43.4,95.3,85.5c2.9,19.2,0.9,66.7-26.1,100.1c-31,38.5-81.4,41-104.6,17.4
		C289.9,454.7,288.4,452.5,286.7,450.4z"/>
</g>
</svg>
