<?xml version="1.0" encoding="utf-8"?>
<!-- Generator: Adobe Illustrator 26.0.2, SVG Export Plug-In . SVG Version: 6.00 Build 0)  -->
<svg version="1.1" id="Skype" xmlns="http://www.w3.org/2000/svg" xmlns:xlink="http://www.w3.org/1999/xlink" x="0px" y="0px"
	 viewBox="0 0 612 792" style="enable-background:new 0 0 612 792;" xml:space="preserve">
<style type="text/css">
	#Skype:hover .st0{
		fill:	white ;
		transition: all 0.3s;
  		box-sizing: border-box;
  		max-width: 100%;
	}
	#Skype:hover .st1{
		fill:#00aff0;
		transition: all 0.3s;
  		box-sizing: border-box;
  		max-width: 100%;
	}
	.st0{fill:black}
	.st1{fill:black}
	</style>
<script>
	let theSkype = document.querySelector("#Skype")

	function logMyID() {console.log(this.id);}

	theSkype.addEventListener("mouseover",logMyID);
</script>
<g >
	<path id="XMLID_1782_" class="st0" d="M466.7,646H145.3C95.9,646,56,606.1,56,556.7V235.3c0-49.4,39.9-89.3,89.3-89.3h321.4
		c49.4,0,89.3,39.9,89.3,89.3v321.4C556,606.1,516.1,646,466.7,646z"/>
	<path  class="st1" d="M166.7,396.1c0,76.8,62.3,139.2,139.2,139.2c8.9,0,17.7-0.9,26.1-2.4
		c12.2,7.4,26.6,11.7,42,11.7c44.9,0,81.3-36.4,81.3-81.3c0-15.8-4.5-30.4-12.2-42.9c1.4-7.9,2.2-16,2.2-24.3
		c0-77-62.3-139.3-139.3-139.3c-8.8,0-17.3,0.9-25.7,2.4c-12.3-7.5-26.7-11.8-42.2-11.8c-44.9,0-81.3,36.4-81.3,81.3
		c0,15.6,4.5,30.3,12.1,42.6C167.5,379.5,166.7,387.6,166.7,396.1z M307.4,297.1c44.9,2.7,71.2,22.4,73.8,40.8
		c1.3,12.1-6.7,21.4-20.7,21.4c-20.4,0-22.4-27.1-57.4-27.1c-15.8,0-29.1,6.6-29.1,20.7c0,29.8,112.1,12.5,112.1,78
		c0,37.8-30.2,62.5-75.3,62.5c-39.7,0-79.5-17.9-79.3-49c0-9.3,7-17.9,16.3-17.9c23.4,0,23.2,34.7,60.3,34.7c26.1,0,35-14.2,35-24.2
		c0-35.9-112.7-13.9-112.7-81.3C230.3,319.5,260.3,294.3,307.4,297.1z"/>
</g>
</svg>
