<?xml version="1.0" encoding="utf-8"?>
<!-- Generator: Adobe Illustrator 26.0.2, SVG Export Plug-In . SVG Version: 6.00 Build 0)  -->
<svg version="1.1" id="Spotify" xmlns="http://www.w3.org/2000/svg" xmlns:xlink="http://www.w3.org/1999/xlink" x="0px" y="0px"
	 viewBox="0 0 612 792" style="enable-background:new 0 0 612 792;" xml:space="preserve">
<style type="text/css">
	#Spotify:hover .st0{
		fill:white ;
		transition: all 0.3s;
  		box-sizing: border-box;
  		max-width: 100%;
	}
	#Spotify:hover .st1{
		fill:#1DB954;
		transition: all 0.3s;
  		box-sizing: border-box;
  		max-width: 100%;
	}
	.st0{fill:black}
	.st1{fill:black}
	</style>
	<script>
	let theSpotify = document.querySelector("#Spotify")

	function logMyID() {console.log(this.id);}

	theSpotify.addEventListener("mouseover",logMyID);
</script>
<g>
	<path class="st0" d="M56,515.2V276.8c0-72,58.9-130.8,130.7-130.8h238.5c72,0,130.7,58.9,130.7,130.8v238.4
		c0,72-58.9,130.8-130.7,130.8H186.9C114.9,646,56,587.3,56,515.2z"/>
	<path class="st1" d="M402.4,496c-2.9,4.8-7.9,7.5-13.1,7.5c-2.5,0-5.2-0.6-7.7-2.1c-39.9-23.3-85.7-27-117.3-26
		c-35,1.2-60.6,7.9-60.8,8.1c-8.1,2.1-16.4-2.5-18.7-10.6c-2.1-8.1,2.5-16.4,10.6-18.7c1.2-0.4,28.7-7.9,67-9.1
		c22.5-0.8,44.3,0.8,64.7,4.6c25.8,4.8,49.1,13.5,69.7,25.4C404.1,479.4,406.6,488.8,402.4,496z"/>
	<path class="st1" d="M430.5,437.4c-3.3,5.8-9.2,8.9-15.4,8.9c-3.1,0-6.2-0.8-9-2.5c-47.2-27.5-101.5-32-139-30.8
		c-41.4,1.3-71.8,9.4-72,9.4c-9.6,2.7-19.4-3.1-21.9-12.5c-2.7-9.6,2.9-19.5,12.5-22c1.3-0.4,34.1-9.2,79.5-10.8
		c26.8-1,52.6,1,76.6,5.6c30.4,5.8,58.1,16,82.6,30.2C432.6,418,435.5,428.9,430.5,437.4z"/>
	<path class="st1" d="M447.8,384.3c-3.9,0-7.5-1-11.2-3.1c-112.1-65.5-257.4-26.6-258.8-26.2c-11.7,3.3-23.9-3.7-27-15.4
		c-3.3-11.7,3.7-23.9,15.4-27c1.7-0.4,41.8-11.4,97.4-13.1c32.9-1.2,64.5,1.2,94,6.7c37.4,7.1,71.4,19.5,101.3,37
		c10.4,6.2,14.1,19.6,7.9,30C462.8,380.4,455.3,384.3,447.8,384.3z"/>
</g>
</svg>
