<?xml version="1.0" encoding="utf-8"?>
<!-- Generator: Adobe Illustrator 26.0.2, SVG Export Plug-In . SVG Version: 6.00 Build 0)  -->
<svg version="1.1" id="Layer_1" xmlns="http://www.w3.org/2000/svg" xmlns:xlink="http://www.w3.org/1999/xlink" x="0px" y="0px"
	 viewBox="0 0 612 792" style="enable-background:new 0 0 612 792;" xml:space="preserve">
<style type="text/css">
	.st0{fill:#FFFFFF;}
	.st1{fill:#969696;}
</style>
<circle cx="283.1" cy="384.8" r="239.4"/>
<g>
	<path class="st0" d="M266.4,338.2c-2.3-1.3-4.4-2.6-6.5-3.8v-37.8c2,1.4,4.1,2.8,6.5,4.4c6.6,4.3,14.7,8.9,24.2,14.1
		c2.2,1.2,4.3,2.3,6.3,3.4c2.3,1.2,4.4,2.4,6.5,3.6v37.7c-1.7-1.1-3.9-2.5-6.5-4c-5.3-3.2-12.3-7.2-21.1-12.2
		C272.5,341.7,269.3,339.9,266.4,338.2z"/>
	<path class="st0" d="M327.3,464.8v7.7h-91.5v-7.7h7.6c9.1,0,15.6-3.6,19.4-10.9c1.4-2.6,2.4-7.3,2.9-14c0.2-2,0.3-4.2,0.4-6.6
		c0.1-3,0.2-6.3,0.2-9.9v-77.8c2,1.2,4.1,2.3,6.3,3.6c12,6.7,19.6,11.2,24.3,14.1v60.2c0,4.3,0.1,8.2,0.3,11.8
		c0.1,2.3,0.3,4.5,0.5,6.4c0.7,7.1,1.9,11.9,3.6,14.4c4,5.8,10.2,8.8,18.6,8.8H327.3z"/>
	<path class="st0" d="M319.8,464.8c-8.4,0-14.6-2.9-18.6-8.8c-1.7-2.5-2.9-7.3-3.6-14.4c-0.2-2-0.3-4.1-0.5-6.4
		c-0.2-3.5-0.3-7.4-0.3-11.8v-60.2c-4.7-2.9-12.3-7.3-24.3-14.1c-2.2-1.2-4.3-2.4-6.3-3.6v77.8c0,3.6-0.1,6.9-0.2,9.9
		c-0.1,2.4-0.2,4.6-0.4,6.6c-0.6,6.7-1.5,11.3-2.9,14c-3.8,7.2-10.3,10.9-19.4,10.9h-7.6v7.7h91.5v-7.7H319.8z M296.9,355.7v-37.4
		c-2-1.1-4.1-2.3-6.3-3.4c-9.5-5.1-17.6-9.8-24.2-14.1v37.3c3,1.7,6.1,3.5,9.4,5.4C284.6,348.5,291.6,352.5,296.9,355.7z
		 M370.4,189.2H194.3l-2.5,66.4h6c0.7-12.8,3.1-23,7-30.5c3.9-7.5,8.6-12.6,14.2-15.2c4.2-1.9,11.4-2.9,21.5-2.9h25.9v86.1
		c6.4,4.3,15.2,9.6,27.3,16.1c1.1,0.6,2.2,1.2,3.3,1.8V207h30.4c8.9,0,16.1,1.9,21.6,5.7c5.5,3.8,9.8,9.8,13.1,17.9
		c2,5,3.6,13.4,4.8,25.1h6L370.4,189.2z"/>
	<path class="st0" d="M254.7,417.1c-8.9-4.7-15.6-10.7-19.9-17.8c-4.3-7.2-7.8-17.9-10.4-32.3H219v68.8h5.5c0.7-4.6,1.8-7.7,3.2-9.2
		c1.4-1.5,3.4-2.2,5.8-2.2c2.6,0,8.7,1.6,18.3,4.7c3,1,5.7,1.8,8,2.5c0.1-2.4,0.1-5.1,0.1-8.1v-3.9
		C258.1,418.8,256.4,418,254.7,417.1z M275.8,226c-3.3,0-6.4,0.2-9.4,0.6v12.3c3-0.7,6.3-1.1,9.7-1.1c7.1,0,14.1,1.4,20.8,4.3v-12.9
		C289.6,227.1,282.6,226,275.8,226z M344.8,357.1c-3.7-7.3-9-13.6-15.8-19c-5.2-4-13.7-9.4-25.6-16.1c-2.1-1.2-4.2-2.4-6.5-3.6
		c-2-1.1-4.1-2.3-6.3-3.4c-9.5-5.1-17.6-9.8-24.2-14.1c-2.3-1.5-4.5-3-6.5-4.4c-5.9-4.2-10.3-7.9-12.9-11.2
		c-4.2-5-6.4-10.6-6.4-16.7c0-8,3.3-15.1,10.1-21.4c2.8-2.6,5.9-4.6,9.2-6.2v-13.4c-10.1,2.3-18.9,6.9-26.3,13.9
		c-11,10.4-16.6,22.8-16.6,37.2c0,8.3,1.9,15.9,5.6,22.8c3.8,6.9,9.3,13.2,16.5,18.9c4.8,3.8,11.7,8.4,20.7,13.8
		c2,1.2,4.2,2.5,6.5,3.8c3,1.7,6.1,3.5,9.4,5.4c8.8,4.9,15.8,9,21.1,12.2c2.6,1.5,4.7,2.9,6.5,4c1.7,1.1,3,2,3.9,2.7
		c5.7,4.3,9.9,9,12.6,14.1c2.7,5,4.1,10,4.1,14.9c0,8.9-3.6,16.6-10.7,23.1c-2.9,2.6-6.2,4.7-9.9,6.3v2.7c0,4.1,0.1,7.7,0.2,10.7
		c11.3-2.4,21-7.3,29.1-14.9c11.8-11,17.7-24.1,17.7-39.3C350.3,372,348.5,364.4,344.8,357.1z M331.6,226c-1,4.6-2.3,7.7-3.9,9.2
		c-1.6,1.5-3.7,2.3-6.3,2.3c-2.3,0-6.2-1.2-11.7-3.7c-2.1-0.9-4.2-1.8-6.3-2.5v14c8,4.6,14.2,10.7,18.6,18.2
		c4.6,7.9,7.8,18.5,9.5,31.8h5.5V226H331.6z"/>
</g>
<g>
	<g>
		<path class="st1" d="M104.2,493.3c3.1,0,4.6,0,7.7,0c0,1.5,0,2.2,0,3.7c-0.9,0.5-1.6,1.2-2.1,2c-0.8,1.3-1.4,2.9-1.7,4.8
			c-0.1,0.7-0.2,1.1-0.3,1.8c-0.1,0.6-0.3,1-0.6,1.3s-0.7,0.4-1.2,0.4c-0.5-0.1-0.9-0.3-1.2-0.7c-0.3-0.4-0.5-0.9-0.5-1.4
			C104.2,500.4,104.2,498.1,104.2,493.3z M127.3,493.4c-0.1,13.4-0.3,26.7-0.4,40.1c0,0.9,0.1,1.6,0.4,2c0.2,0.3,0.3,0.4,0.4,0.5
			c0.1,0.1,0.6,0.4,1.3,0.8c0.9,0.5,1.4,1.2,1.4,2.3c0,0.6-0.3,1-0.8,1.3c-0.4,0.2-1,0.2-1.9-0.1c-0.4-0.1-0.6-0.2-1-0.3
			c-5.1-1.4-7.7-2.1-12.8-3.7c-0.4-0.1-0.6-0.2-0.9-0.3c-0.8-0.3-1.5-0.6-1.9-1c-0.4-0.4-0.6-0.9-0.6-1.4c0-0.9,0.5-1.3,1.4-1.3
			c0.7,0,1.2,0,1.3,0c0.1,0,0.3-0.1,0.4-0.3c0.3-0.3,0.4-0.8,0.4-1.6c0.1-12.3,0.1-24.7,0.2-37C119.5,493.4,122.1,493.4,127.3,493.4
			z M137.4,493.4c-0.1,5.9-0.1,8.8-0.2,14.7c0,0.7-0.2,1.2-0.5,1.7s-0.7,0.6-1.2,0.5c-0.5,0-0.9-0.3-1.2-0.7c-0.3-0.4-0.5-1-0.6-1.7
			c-0.1-0.9-0.2-1.3-0.3-2.2c-0.3-2.2-0.8-4.1-1.6-5.8c-0.5-1-1.2-1.8-2.1-2.5c0-1.7,0-2.5,0-4.2
			C132.8,493.4,134.3,493.4,137.4,493.4z"/>
		<path class="st1" d="M156.9,547.3c-5.2-1.1-7.8-1.7-13-3c-0.3-0.1-0.5-0.1-0.8-0.2c-0.7-0.2-1.2-0.5-1.6-0.9s-0.6-0.9-0.5-1.6
			c0-1,0.4-1.6,1.2-1.7c0.6-0.1,1-0.2,1.1-0.2c0.1,0,0.2-0.2,0.3-0.4c0.2-0.3,0.4-1,0.4-1.8c0.2-12.4,0.3-24.9,0.5-37.3
			c0-0.9-0.1-1.5-0.3-1.9c-0.1-0.2-0.2-0.4-0.3-0.4c-0.1-0.1-0.5-0.2-1.1-0.5c-0.8-0.3-1.2-1-1.1-2c0-0.6,0.2-1.1,0.6-1.4
			c0.4-0.3,0.9-0.5,1.6-0.5c0.3,0,0.5,0,0.8,0c5.2,0,7.8,0,13.1,0.1c0.3,0,0.5,0,0.8,0c1.4,0,2.1,0.7,2.1,2.1c0,1.1-0.4,1.8-1.1,2.1
			c-0.4,0.2-0.5,0.2-0.9,0.4c-0.6,0.3-0.9,1.1-0.9,2.6c-0.2,13.1-0.4,26.3-0.6,39.4c0,1.5,0.2,2.4,0.8,2.8c0.4,0.2,0.5,0.3,0.9,0.6
			c0.7,0.5,1.1,1.3,1.1,2.4c0,1.4-0.7,1.9-2.1,1.6C157.3,547.4,157.2,547.4,156.9,547.3z M159.8,518.1c1.9,0.2,2.9,0.3,4.8,0.5
			c0.1-7.1,0.2-10.6,0.3-17.7c0-1.5-0.2-2.4-0.8-2.7c-0.4-0.2-0.6-0.3-0.9-0.4c-0.7-0.3-1.1-1.1-1.1-2.2c0-1.4,0.7-2.1,2.1-2.1
			c0.3,0,0.5,0,0.8,0c5.2,0,7.8,0,13,0.1c0.3,0,0.5,0,0.8,0c1.5,0,2.2,0.7,2.2,2.2c0,1.2-0.4,1.9-1.2,2.3c-0.6,0.3-1,0.5-1.1,0.6
			c-0.1,0.1-0.2,0.2-0.3,0.5c-0.2,0.4-0.4,1.2-0.4,2.2c-0.2,14.1-0.4,28.1-0.6,42.2c0,1.6,0.3,2.5,0.8,3c0.4,0.2,0.6,0.4,0.9,0.6
			c0.8,0.5,1.2,1.3,1.1,2.5c0,1.5-0.8,2.1-2.2,1.9c-0.3-0.1-0.5-0.1-0.8-0.1c-5.2-0.9-7.8-1.4-13-2.5c-0.3-0.1-0.5-0.1-0.8-0.2
			c-1.4-0.3-2-1.1-2-2.5c0-1.1,0.4-1.8,1.1-2c0.4-0.1,0.6-0.2,0.9-0.3c0.6-0.1,0.9-1,0.9-2.6c0.1-7.5,0.2-11.2,0.3-18.7
			c-1.9-0.2-2.9-0.3-4.8-0.5C159.7,520.5,159.7,519.7,159.8,518.1z"/>
		<path class="st1" d="M202.3,493.7c-0.3,20.5-0.5,41-0.8,61.5c-5.2-0.7-7.9-1.1-13.1-1.9c-0.3,0-0.5-0.1-0.8-0.1
			c-0.7-0.1-1.2-0.4-1.6-0.9s-0.6-1-0.5-1.8c0-1.2,0.4-1.9,1.2-2.2c0.6-0.2,1-0.4,1.1-0.4c0.1-0.1,0.2-0.2,0.3-0.5
			c0.2-0.4,0.4-1.2,0.4-2.2c0.2-14.6,0.4-29.2,0.6-43.7c0-1-0.1-1.8-0.3-2.2c-0.1-0.3-0.2-0.4-0.3-0.5c-0.1-0.1-0.5-0.3-1.1-0.6
			c-0.8-0.4-1.2-1.2-1.1-2.4c0-0.7,0.2-1.3,0.6-1.7c0.4-0.4,0.9-0.6,1.6-0.6c0.3,0,0.5,0,0.8,0C194.5,493.7,197.1,493.7,202.3,493.7
			z M204.4,526.7c0-2.1,0-3.2,0.1-5.3c1.1-0.8,2-1.7,2.6-2.6c0.6-1,1-2.3,1.3-4c0.2-1.1,0.4-1.9,0.6-2.4c0.3-0.4,0.6-0.6,1.1-0.6
			c0.6,0,1.1,0.4,1.3,1.2c0.1,0.4,0.2,1.3,0.2,2.7c-0.1,7-0.1,10.5-0.2,17.5c0,1.4-0.1,2.4-0.3,3s-0.6,0.8-1.1,0.7
			c-0.5,0-0.8-0.3-1.1-0.7c-0.3-0.4-0.4-1.2-0.6-2.2c-0.3-2.1-0.8-3.8-1.4-4.9C206.1,527.9,205.3,527.1,204.4,526.7z M204.9,493.7
			c4.7,0,7.1,0,11.8,0c-0.1,6.6-0.1,9.9-0.2,16.4c0,1-0.1,1.7-0.4,2.1c-0.2,0.4-0.6,0.6-1.1,0.6c-0.4,0-0.7-0.2-0.9-0.5
			c-0.2-0.3-0.4-0.9-0.5-1.7c-0.7-3.6-1.8-6.3-3.2-8.2s-3.3-3-5.5-3.4C204.9,496.9,204.9,495.8,204.9,493.7z M204.2,555.6
			c0-2,0-2.9,0.1-4.9c1.3-0.1,2.3-0.4,3.2-0.9c0.8-0.5,1.7-1.2,2.5-2.2c0.9-1,1.5-2.1,2.1-3.3s1-2.7,1.5-4.7c0.2-1,0.5-1.6,0.7-2
			c0.2-0.3,0.6-0.5,1-0.5c0.5,0,0.9,0.3,1.1,0.9c0.2,0.5,0.3,1.4,0.3,2.7c-0.1,6.6-0.1,9.8-0.2,16.4
			C211.5,556.6,209.1,556.3,204.2,555.6z"/>
		<path class="st1" d="M250,492.5c0,2.2,0,3.3,0,5.6c-1.2,0.5-2.1,1.4-2.8,2.5c-0.6,1.1-1,2.5-1,4.2c0,1.6,0.2,3,0.8,4.2
			c0.5,1.2,1.4,2.4,2.6,3.5c0.8,0.8,2.7,2.2,5.6,4.4c1.8,1.3,3.1,2.5,4.1,3.5c1,1,1.9,2.3,2.7,3.9c2.3,4.1,3.5,8.9,3.4,14.4
			c0,4.2-0.7,8-1.9,11.5c-1.3,3.4-3,6.1-5.2,8c-1.2,1-2.5,1.8-3.9,2.3c-1.4,0.5-2.7,0.8-4,0.7c0-2.2,0-3.3,0-5.5
			c1.7-0.6,3-1.5,3.7-2.7c0.8-1.2,1.2-2.8,1.2-4.9c0-2.2-0.6-4.1-1.7-5.8c-0.8-1.1-2.3-2.5-4.5-4.1c-2.4-1.8-4.1-3.1-4.9-3.9
			c-0.9-0.8-1.7-1.7-2.6-2.7c-3.7-4.4-5.5-10.2-5.4-17.3c0-3.6,0.5-7,1.5-10c0.9-3.1,2.2-5.5,3.9-7.4
			C243.8,494.2,246.7,492.8,250,492.5z M248.2,555.5c0,2.2,0,3.3,0,5.5c-1.6-0.1-3.4-1-5.3-2.6c-0.7-0.6-1.2-1-1.5-1.2
			c-0.3-0.2-0.5-0.3-0.8-0.3c-0.4,0-0.7,0.1-0.9,0.3c-0.2,0.2-0.5,0.7-1,1.5c-0.4,0.7-0.7,1-1.2,1c-1.1-0.1-1.6-1.5-1.6-4.2
			c0.1-6.9,0.1-10.4,0.1-17.4c0-0.9,0.2-1.6,0.5-2.2c0.3-0.6,0.7-0.9,1.2-0.9c0.4,0,0.8,0.2,1,0.6c0.2,0.4,0.4,1.2,0.6,2.3
			c0.4,2.8,1.1,5.4,1.9,7.8s1.8,4.5,3,6.3C245.3,553.8,246.6,555,248.2,555.5z M252.3,498.1c0-2.1,0-3.2,0-5.3
			c1.2,0.1,2.2,0.4,3,0.8c0.9,0.4,2.1,1.1,3.7,2.2c0.4,0.3,0.7,0.4,1,0.4c0.4,0,0.6-0.2,0.8-0.6c0.3-0.6,0.4-0.8,0.6-1.4
			c0.3-0.7,0.7-1.1,1.1-1.1c0.5,0,0.9,0.3,1.2,1s0.4,1.6,0.4,3c0,6.4,0,9.7,0,16.1c0,0.9-0.2,1.7-0.5,2.3c-0.3,0.6-0.7,0.9-1.3,0.9
			c-0.4,0-0.8-0.2-1.1-0.6c-0.2-0.3-0.3-0.6-0.4-1c-0.1-0.4-0.2-1-0.3-1.9c-0.2-1.6-0.6-3.2-1.1-4.9c-0.5-1.7-1.1-3.2-1.8-4.5
			C256.2,500.6,254.4,498.9,252.3,498.1z"/>
		<path class="st1" d="M285.5,497.8c-1,0.6-1.7,1.4-2.1,2.4s-0.6,2.5-0.6,4.5c0,14.6,0,29.2,0,43.8c0,2.9,0.3,4.9,0.7,6.1
			c0.4,1,1.1,1.7,2,2.1c0,2.2,0,3.2,0,5.4c-4.4-0.5-8.1-3.3-11-8.2c-3.8-6.4-5.7-15.2-5.7-26.5c0-5.7,0.5-10.8,1.5-15.4
			c1-4.6,2.5-8.5,4.5-11.7c1.5-2.4,3.1-4.3,4.9-5.6c1.7-1.3,3.7-2,5.8-2.2C285.5,494.6,285.5,495.7,285.5,497.8z M288,497.8
			c0-2.1,0-3.2,0-5.3c2.1,0.2,4,0.9,5.8,2.1c1.8,1.3,3.4,3.1,4.9,5.6c4,6.5,6.1,15.4,6.1,26.8c0,11.2-1.8,20.1-5.7,26.5
			c-2.9,5-6.6,7.8-11,8.4c0-2.2,0-3.2,0-5.4c0.5-0.2,0.9-0.5,1.2-0.8s0.5-0.8,0.8-1.4c0.5-1.3,0.8-3.4,0.8-6.1
			c0-14.6-0.1-29.1-0.1-43.7c0-1.7-0.2-3.1-0.5-4.1c-0.2-0.7-0.5-1.2-0.8-1.6C289,498.5,288.6,498.1,288,497.8z"/>
		<path class="st1" d="M310.9,540.5c-0.1-12.6-0.1-25.3-0.2-37.9c0-1.1-0.1-2-0.4-2.5c-0.1-0.3-0.2-0.5-0.3-0.6s-0.5-0.3-1.1-0.6
			c-0.8-0.4-1.2-1.3-1.2-2.6c0-0.8,0.2-1.5,0.6-1.9c0.4-0.4,0.9-0.7,1.6-0.7c0.3,0,0.5,0,0.8,0c5.2,0,7.8,0,13.1,0
			c0.3,0,0.5,0,0.8,0c0.4,0.1,0.6,0.1,1.1,0.2c0.3,0.2,0.6,0.4,0.8,0.9c0.2,0.4,0.3,0.9,0.3,1.5c0,1.3-0.4,2.1-1.2,2.5
			c-0.6,0.3-1,0.6-1.1,0.7c-0.1,0.1-0.2,0.3-0.3,0.6c-0.2,0.5-0.3,1.3-0.3,2.4c0.1,13.4,0.2,26.7,0.3,40.1c0,2.7,0.1,4.6,0.2,5.7
			c0.1,1.1,0.3,2,0.6,2.9c0.3,0.8,0.6,1.3,0.9,1.7c0.3,0.3,0.9,0.7,1.8,1.1c0,2.5,0,3.7,0.1,6.2c-0.3,0-0.4,0-0.7,0.1
			c-2.6,0.2-4.7,0-6.4-0.6c-2-0.7-3.8-1.9-5.3-3.5c-1.5-1.6-2.6-3.5-3.2-5.6C311.3,548.1,311,544.8,310.9,540.5z M330.3,559.8
			c0-2.5,0-3.7-0.1-6.2c2-0.6,3.6-2,4.9-4.3c1.5-2.6,2.2-6.2,2.1-10.8c-0.1-10.2-0.2-20.4-0.3-30.6c0-4.3-1.1-7.3-3.2-8.9
			c-0.6-0.5-1-0.9-1.2-1.3s-0.3-0.9-0.3-1.6c0-0.8,0.2-1.4,0.5-1.7c0.4-0.3,1-0.5,1.8-0.5c2.9,0,4.3,0,7.2,0c0.6,0,1,0,1.2,0.1
			s0.4,0.2,0.6,0.3c0.5,0.5,0.8,1.1,0.8,1.9c0,0.7-0.1,1.3-0.5,1.7c-0.1,0.2-0.5,0.6-1.2,1.3c-0.8,0.8-1.5,1.9-2,3.5
			c-0.5,1.5-0.7,3.3-0.7,5.3c0.1,10.2,0.2,20.3,0.3,30.5c0.1,5.2-0.6,9.6-2.1,13.1c-1,2.6-2.5,4.7-4.5,6.4
			C332.8,558.6,331.6,559.3,330.3,559.8z"/>
		<path class="st1" d="M364.8,493.7c0.2,17.4,0.4,34.8,0.7,52.2c0,1.2,0.2,2,0.5,2.4c0.2,0.3,0.3,0.4,0.4,0.5
			c0.1,0.1,0.6,0.2,1.4,0.4c0.9,0.2,1.4,0.9,1.4,2.2c0,0.8-0.2,1.4-0.7,2c-0.4,0.4-1,0.7-1.8,0.8c-0.4,0.1-0.6,0.1-1,0.1
			c-5.2,0.8-7.9,1.1-13.1,1.8c-0.3,0-0.5,0.1-0.8,0.1c-0.7,0.1-1.3-0.1-1.6-0.4c-0.4-0.4-0.6-0.9-0.6-1.7c0-1.3,0.4-2.1,1.2-2.6
			c0.6-0.4,1-0.7,1.1-0.7s0.2-0.3,0.3-0.6c0.2-0.5,0.3-1.3,0.3-2.4c-0.2-15.3-0.4-30.5-0.5-45.8c0-1.1-0.1-1.8-0.4-2.3
			c-0.1-0.3-0.2-0.4-0.3-0.5c-0.1-0.1-0.5-0.3-1.1-0.6c-0.8-0.4-1.2-1.2-1.2-2.5c0-0.8,0.2-1.4,0.6-1.8c0.4-0.4,0.9-0.6,1.6-0.6
			c0.3,0,0.5,0,0.8,0C357,493.7,359.6,493.7,364.8,493.7z M374.2,523.9c1.8,0.3,3.2,0.6,4.2,1c1,0.4,1.9,1,2.7,1.7
			c0.8,0.8,1.5,1.8,1.9,2.9c0.5,1.2,0.7,2.4,0.7,3.8c0,3.5,0.1,5.3,0.1,8.8c0,0.9,0.2,1.3,0.6,1.3c0.2,0,0.3-0.1,0.4-0.3
			c0.1-0.1,0.3-0.4,0.4-0.8c0.5-1,1-1.6,1.5-1.7c0.3-0.1,0.7,0.1,1,0.6c0.3,0.4,0.5,0.9,0.5,1.4c0,0.9-0.3,2-0.8,3.3
			s-1.3,2.6-2.1,3.7c-0.8,1.1-1.6,1.9-2.6,2.5c-0.9,0.6-2,1-3.3,1.2c-2.6,0.5-4.6-0.3-6.1-2.3c-1.5-2-2.2-4.9-2.3-8.9
			c0-2.9-0.1-4.4-0.1-7.4c0-1.6,0-2.6-0.1-2.8c-0.1-1.2-0.4-2.2-0.9-2.9c-0.6-1-1.4-1.5-2.5-1.6c0-1.9,0-2.8-0.1-4.7
			c1.1-0.3,1.8-0.8,2.2-1.4c0.4-0.5,0.6-1.2,0.8-1.9s0.2-1.7,0.2-3c-0.1-4.6-0.1-7-0.2-11.6c0-1.8-0.3-3.2-0.8-4.1s-1.4-1.6-2.6-2.1
			c0-2,0-2.9-0.1-4.9c0.3,0,0.5,0,0.8,0c2.2,0,4,0.1,5.5,0.3c2.3,0.3,4.3,1.4,6.1,3.2c2.6,2.6,3.9,6.3,4,11.1c0.1,4-0.8,7.3-2.4,10
			c-0.7,1.1-1.5,2.1-2.5,2.9S376.2,522.8,374.2,523.9z"/>
		<path class="st1" d="M406.9,492.5c0,1.9,0,2.8,0.1,4.7c-1.1,0.3-2,0.9-2.5,2.1c-0.6,1.1-0.8,2.8-0.8,4.9
			c0.2,10.8,0.3,21.7,0.5,32.5c0,0.7,0,1,0,1.7c0,0.6,0.1,1.2,0.3,1.9c0.2,0.6,0.4,1.2,0.7,1.6c0.3,0.5,0.7,0.8,1,0.9
			c0.4,0.1,0.8,0.2,1.4,0.2c0,1.9,0,2.8,0.1,4.7c-3.8,0.9-7.1,0.3-9.9-1.9c-2.5-1.9-4.4-4.9-5.7-8.8c-1.3-3.9-2-8.8-2.1-14.5
			c-0.1-4.2,0.3-8.1,1-11.7c0.8-3.6,1.9-6.8,3.4-9.4c1.5-2.7,3.4-4.8,5.5-6.4c2.2-1.6,4.2-2.4,6.3-2.4
			C406.5,492.5,406.6,492.5,406.9,492.5z M409.2,497.2c0-1.9,0-2.8-0.1-4.7c1,0.2,1.7,0.4,2.3,0.6c0.6,0.2,1.7,0.7,3.3,1.4
			c1,0.4,1.7,0.7,2,0.6c0.6,0,1-0.3,1.3-1c0.1-0.4,0.2-0.5,0.4-0.9c0.2-0.6,0.7-0.9,1.3-0.9c0.5,0,0.9,0.2,1.2,0.6
			c0.3,0.4,0.4,1,0.4,1.7c0.1,6.1,0.1,9.1,0.2,15.1c0,1-0.2,1.7-0.5,2.2c-0.3,0.5-0.7,0.7-1.2,0.8c-0.5,0-0.8-0.1-1.1-0.5
			c-0.3-0.4-0.5-1-0.7-1.8c-0.4-1.9-0.9-3.4-1.3-4.5c-0.9-2.3-1.8-4.2-2.9-5.6c-0.7-1-1.5-1.7-2.2-2.3
			C410.9,497.6,410.1,497.3,409.2,497.2z M410,547c0-1.9,0-2.8-0.1-4.7c1.5-0.5,3.1-1.6,4.7-3.3c0.9-0.9,1.7-2,2.3-3.4
			c0.7-1.3,1.2-2.8,1.5-4.3c0.2-0.8,0.4-1.4,0.7-1.8c0.3-0.4,0.6-0.6,1-0.7c0.5-0.1,0.9,0.1,1.2,0.4c0.3,0.4,0.5,0.9,0.5,1.6
			c0,1.1-0.3,2.5-1,4.2c-0.6,1.7-1.5,3.3-2.5,4.9c-1.3,1.9-2.6,3.4-3.9,4.6S411.7,546.5,410,547z"/>
		<path class="st1" d="M441.8,493.3c0.1,14.8,0.2,29.5,0.3,44.3c-5.1,1.5-7.7,2.2-12.8,3.6c-0.3,0.1-0.5,0.1-0.8,0.2
			c-0.7,0.2-1.2,0.2-1.6-0.1c-0.4-0.2-0.6-0.6-0.6-1.2c0-1,0.4-1.7,1.1-2.2c0.6-0.4,1-0.7,1.1-0.7c0.1-0.1,0.2-0.2,0.3-0.5
			c0.2-0.4,0.3-1.1,0.3-1.9c-0.1-11.7-0.3-23.4-0.4-35.1c0-0.8-0.1-1.4-0.4-1.8c-0.1-0.2-0.2-0.3-0.3-0.4c-0.1-0.1-0.5-0.2-1.1-0.4
			c-0.8-0.3-1.2-0.9-1.2-1.9c0-0.6,0.2-1.1,0.6-1.4s0.9-0.5,1.6-0.5c0.3,0,0.5,0,0.8,0C434,493.4,436.6,493.4,441.8,493.3z
			 M444.4,516.6c0-1.5,0-2.2,0-3.7c1.1-0.7,1.9-1.5,2.5-2.3s0.9-1.7,1.2-2.9c0.2-0.8,0.4-1.4,0.6-1.7s0.6-0.5,1.1-0.5
			c0.6-0.1,1,0.2,1.3,0.6c0.1,0.3,0.2,0.8,0.2,1.8c0,4.6,0,7,0,11.6c0,1-0.1,1.6-0.3,2c-0.2,0.4-0.6,0.7-1.1,0.8
			c-0.4,0.1-0.8,0-1-0.2c-0.3-0.2-0.5-0.7-0.6-1.3c-0.3-1.4-0.8-2.4-1.4-3.1C446.2,517.1,445.4,516.7,444.4,516.6z M444.4,493.3
			c4.7,0,7.1,0,11.8-0.1c0,4.2,0,6.2,0,10.4c0,0.6-0.1,1.1-0.3,1.4c-0.2,0.3-0.6,0.5-1.1,0.5c-0.4,0-0.7,0-0.9-0.2
			c-0.2-0.2-0.4-0.5-0.6-1.1c-0.7-2.3-1.8-4-3.3-5.2c-1.4-1.2-3.3-1.9-5.6-2.1C444.4,495.6,444.4,494.8,444.4,493.3z M444.7,536.9
			c0-1.4,0-2.1,0-3.4c1.2-0.6,2.3-1.1,3.1-1.7c0.8-0.6,1.6-1.4,2.5-2.4c0.8-1,1.5-1.9,2-2.8c0.5-0.9,0.9-2.1,1.4-3.5
			c0.2-0.7,0.4-1.2,0.7-1.4c0.2-0.3,0.5-0.5,1-0.5c0.5-0.1,0.9,0,1.1,0.2s0.3,0.8,0.3,1.6c0,4.1,0,6.2,0,10.3
			C451.9,534.8,449.5,535.5,444.7,536.9z"/>
	</g>
</g>
</svg>
