<?xml version="1.0" encoding="utf-8"?>
<!-- Generator: Adobe Illustrator 26.0.2, SVG Export Plug-In . SVG Version: 6.00 Build 0)  -->
<svg version="1.1" id="twitter" xmlns="http://www.w3.org/2000/svg" xmlns:xlink="http://www.w3.org/1999/xlink" x="0px" y="0px"
	 viewBox="0 0 612 792" style="enable-background:new 0 0 612 792;" xml:space="preserve">
<style type="text/css">
	#twitter:hover .st0{
		fill:white;
		transition: all 0.5s;
  	
	}
	#twitter:hover .st1{
		fill:	#1DA1F2;
		transition: all 0.3s;
	}
	.st0{fill:black}
	.st1{fill:black}
	</style>
	<script>
	let thetwitter = document.querySelector("#twitter")

	function logMyID() {console.log(this.id);}

	thetwitter.addEventListener("mouseover",logMyID);
</script>
<g>
	<path class="st0" d="M56,515.2V276.8C56,205,114.8,146,186.8,146h238.3C497,146,556,204.8,556,276.8v238.3
		C556,587,497.2,646,425.2,646H186.6C114.8,646,56,587,56,515.2z"/>
	<path class="st1" d="M444,310.3c-8.6,3.9-18.2,6.2-27.7,7.9c4.5-0.6,10.9-8.8,13.5-12c4.1-4.9,7.3-10.5,9.2-16.7
		c0.2-0.4,0.4-1.1,0-1.5c-0.6-0.2-1.1-0.2-1.5,0.2c-10.5,5.6-21.2,9.7-32.6,12.4c-0.9,0.2-1.7,0-2.4-0.6c-0.9-1.1-1.9-2.1-2.8-3
		c-4.7-4.1-10.1-7.3-15.9-9.7c-7.7-3.2-16.1-4.5-24.2-3.9c-7.9,0.4-15.9,2.8-23,6.4c-7.1,3.6-13.5,9-18.7,15.2
		c-5.1,6.4-9.2,14.2-11.2,22.3c-1.9,7.7-1.7,15.7-0.6,23.4c0.2,1.3,0,1.5-1.1,1.3c-44.8-6.6-82.2-22.7-112.4-57.3
		c-1.3-1.5-1.9-1.5-3,0.2c-13.3,19.7-6.9,51.7,9.7,67.4c2.1,2.1,4.5,4.1,6.9,6c-0.9,0.2-11.8-1.1-21.7-6c-1.3-0.9-1.9-0.4-2.1,1.1
		c-0.2,2.1,0,4.1,0.4,6.4c2.6,20.2,16.5,38.6,35.4,45.9c2.4,0.9,4.7,1.7,7.3,2.1c-4.3,0.9-8.8,1.7-21.2,0.6
		c-1.5-0.2-2.1,0.4-1.5,1.9c9.4,25.5,29.6,33,44.6,37.3c1.9,0.4,4.1,0.4,6,0.9c-0.2,0.2-0.2,0.2-0.4,0.4
		c-4.9,7.7-22.3,13.3-30.5,16.1c-14.8,5.1-30.7,7.5-46.3,6c-2.6-0.4-3-0.4-3.6,0c-0.6,0.4,0,1.1,0.6,1.7c3.2,2.1,6.4,3.9,9.7,5.8
		c9.9,5.1,20.2,9.4,30.9,12.4c55.6,15.4,118.4,4.1,160-37.5c32.8-32.6,44.4-77.6,44.4-122.5c0-1.7,2.1-2.8,3.2-3.6
		c8.6-6.4,15.4-14.2,21.9-22.7c1.5-1.9,1.5-3.6,1.5-4.3c0-0.2,0-0.2,0-0.2C445.1,309.7,445.1,309.9,444,310.3z"/>
</g>
</svg>
